# xmcd CD database file
#
# Track frame offsets:
#	150
#	48758
#	117367
#	145787
#	206966
#	226929
#
# Disc length: 4007 seconds
#
# Revision: 0
# Processed by: cddbd v1.5.1PL2 Copyright (c) Steve Scherf et al.
# Submitted via: CDex 1.51
#
DISCID=4f0fa506
DTITLE=Ernest Dawkins' New Horizons Ensemble - Mean Ameen
DYEAR=2004
DGENRE=Jazz
TTITLE0=Mean Ameen
TTITLE1=3-D
TTITLE2=Jeff To The Left
TTITLE3=The Messenger
TTITLE4=Haiti
TTITLE5=Buster And The Search For The Human Genome
EXTD=YEAR: 2004
EXTT0=
EXTT1=
EXTT2=
EXTT3=
EXTT4=
EXTT5=
PLAYORDER=
